 <svg class="wave" xmlns="http://www.w3.org/2000/svg" viewBox="0 0 1440 320">
    <path fill="#FFFFFF" fill-opacity="1" d="M0,288L26.7,256C53.3,224,107,160,160,165.3C213.3,171,267,245,320,234.7C373.3,224,427,128,480,106.7C533.3,85,587,139,640,181.3C693.3,224,747,256,800,266.7C853.3,277,907,267,960,250.7C1013.3,235,1067,213,1120,224C1173.3,235,1227,277,1280,288C1333.3,299,1387,277,1413,266.7L1440,256L1440,320L1413.3,320C1386.7,320,1333,320,1280,320C1226.7,320,1173,320,1120,320C1066.7,320,1013,320,960,320C906.7,320,853,320,800,320C746.7,320,693,320,640,320C586.7,320,533,320,480,320C426.7,320,373,320,320,320C266.7,320,213,320,160,320C106.7,320,53,320,27,320L0,320Z"></path>
</svg>